<svg width="124" height="36" viewBox="0 0 124 36" fill="none" xmlns="http://www.w3.org/2000/svg">
<path d="M15.457 14.6133C15.457 14.6367 15.4609 14.668 15.4688 14.707C15.4766 14.7383 15.4805 14.7734 15.4805 14.8125C15.4805 14.9766 15.4141 15.1211 15.2812 15.2461C15.1562 15.3711 15.0156 15.4336 14.8594 15.4336C14.7344 15.4336 14.6172 15.3945 14.5078 15.3164C14.4062 15.2383 14.332 15.1328 14.2852 15C14.1836 14.7031 14.0859 14.3867 13.9922 14.0508C13.8984 13.707 13.8125 13.3711 13.7344 13.043C13.6641 12.7148 13.5977 12.4062 13.5352 12.1172C13.4727 11.8281 13.4258 11.582 13.3945 11.3789C12.9492 11.4023 12.4414 11.4219 11.8711 11.4375C11.3008 11.4453 10.6875 11.4492 10.0312 11.4492L9.64453 25.9219C10.2852 25.9453 10.9023 25.9922 11.4961 26.0625C11.668 26.0781 11.8008 26.1445 11.8945 26.2617C11.9961 26.3711 12.0469 26.5039 12.0469 26.6602C12.0469 26.8555 11.9805 27.0078 11.8477 27.1172C11.7227 27.2344 11.5898 27.293 11.4492 27.293H11.3789C10.7461 27.2148 10.1211 27.1602 9.50391 27.1289C8.88672 27.1055 8.26953 27.0938 7.65234 27.0938C7.02734 27.0938 6.41406 27.1055 5.8125 27.1289C5.21094 27.1602 4.60938 27.2148 4.00781 27.293H3.9375C3.76562 27.293 3.61719 27.2266 3.49219 27.0938C3.375 26.9609 3.31641 26.8164 3.31641 26.6602C3.31641 26.5039 3.36719 26.3711 3.46875 26.2617C3.57812 26.1445 3.71094 26.0781 3.86719 26.0625C4.46875 25.9922 5.05859 25.9453 5.63672 25.9219L5.90625 11.3789C5.24219 11.3555 4.61719 11.3281 4.03125 11.2969C3.45312 11.2578 2.93359 11.2188 2.47266 11.1797C2.42578 11.3906 2.36719 11.6484 2.29688 11.9531C2.23438 12.2578 2.16016 12.582 2.07422 12.9258C1.99609 13.2695 1.91406 13.6211 1.82812 13.9805C1.74219 14.332 1.65234 14.6641 1.55859 14.9766C1.51953 15.1094 1.44531 15.2188 1.33594 15.3047C1.23438 15.3906 1.11719 15.4336 0.984375 15.4336C0.804688 15.4336 0.65625 15.3711 0.539062 15.2461C0.421875 15.1133 0.363281 14.9688 0.363281 14.8125C0.363281 14.7891 0.363281 14.7617 0.363281 14.7305C0.363281 14.6914 0.371094 14.6602 0.386719 14.6367C0.503906 14.2227 0.621094 13.7695 0.738281 13.2773C0.855469 12.7852 0.960938 12.3242 1.05469 11.8945C1.15625 11.4648 1.23828 11.1055 1.30078 10.8164C1.36328 10.5273 1.39453 10.3789 1.39453 10.3711C1.43359 10.2227 1.50391 10.1055 1.60547 10.0195C1.71484 9.93359 1.84375 9.89062 1.99219 9.89062H2.08594C2.49219 9.94531 2.98438 9.99219 3.5625 10.0312C4.14844 10.0703 4.77734 10.1055 5.44922 10.1367C6.12891 10.1602 6.83203 10.1797 7.55859 10.1953C8.28516 10.2109 8.99609 10.2188 9.69141 10.2188C10.543 10.2188 11.3281 10.2109 12.0469 10.1953C12.7656 10.1719 13.3672 10.1406 13.8516 10.1016H13.8984C14.0391 10.1016 14.168 10.1523 14.2852 10.2539C14.4023 10.3477 14.4727 10.4648 14.4961 10.6055C14.4961 10.6133 14.5078 10.6797 14.5312 10.8047C14.5547 10.9297 14.5859 11.0977 14.625 11.3086C14.6641 11.5195 14.7109 11.7617 14.7656 12.0352C14.8281 12.3086 14.8945 12.5938 14.9648 12.8906C15.0352 13.1797 15.1094 13.4766 15.1875 13.7812C15.2734 14.0781 15.3633 14.3555 15.457 14.6133ZM28.8267 21.1875C28.5377 21.1875 28.2642 21.1328 28.0064 21.0234C27.7564 20.9141 27.5377 20.7656 27.3502 20.5781C27.1627 20.3906 27.0142 20.1719 26.9048 19.9219C26.7955 19.6641 26.7408 19.3906 26.7408 19.1016C26.7408 18.8125 26.7955 18.543 26.9048 18.293C27.0142 18.0352 27.1627 17.8125 27.3502 17.625C27.5377 17.4297 27.7564 17.2773 28.0064 17.168C28.2642 17.0508 28.5377 16.9922 28.8267 16.9922C28.8658 16.9922 28.9009 16.9961 28.9322 17.0039C28.9713 17.0117 29.0103 17.0156 29.0494 17.0156C28.8463 16.8594 28.608 16.7422 28.3345 16.6641C28.0689 16.5781 27.7603 16.5352 27.4088 16.5352C26.9634 16.5352 26.5767 16.6289 26.2486 16.8164C25.9205 16.9961 25.6392 17.2266 25.4048 17.5078C25.1783 17.7812 24.9947 18.082 24.8541 18.4102C24.7134 18.7305 24.6002 19.0352 24.5142 19.3242C24.4361 19.6055 24.3814 19.8477 24.3502 20.0508C24.3267 20.2539 24.315 20.3711 24.315 20.4023L24.2916 25.6055C24.565 25.6289 24.8384 25.6641 25.1119 25.7109C25.3931 25.7578 25.6783 25.8047 25.9673 25.8516C26.1158 25.8906 26.2369 25.9688 26.3306 26.0859C26.4244 26.1953 26.4713 26.3242 26.4713 26.4727C26.4713 26.6445 26.4048 26.7891 26.272 26.9062C26.1392 27.0156 25.9986 27.0703 25.8502 27.0703H25.733C25.1002 26.9531 24.4986 26.8633 23.9283 26.8008C23.358 26.7383 22.7916 26.707 22.2291 26.707C21.6666 26.707 21.1041 26.7383 20.5416 26.8008C19.9791 26.8633 19.3814 26.9531 18.7486 27.0703H18.6314C18.4517 27.0703 18.3072 27.0117 18.1978 26.8945C18.0884 26.7695 18.0338 26.6289 18.0338 26.4727C18.0338 26.3242 18.0767 26.1953 18.1627 26.0859C18.2486 25.9688 18.3658 25.8906 18.5142 25.8516C18.7877 25.8047 19.0611 25.7578 19.3345 25.7109C19.608 25.6641 19.8775 25.6289 20.1431 25.6055V16.875C19.6509 16.8516 19.2369 16.8203 18.9009 16.7812C18.565 16.7422 18.3775 16.7148 18.3384 16.6992C18.1822 16.6836 18.0533 16.6211 17.9517 16.5117C17.858 16.3945 17.8111 16.2578 17.8111 16.1016C17.8111 15.9062 17.8775 15.7539 18.0103 15.6445C18.1509 15.5352 18.2916 15.4805 18.4322 15.4805H18.5142C18.522 15.4883 18.6119 15.5039 18.7838 15.5273C18.9556 15.543 19.1783 15.5625 19.4517 15.5859C19.7252 15.6094 20.0377 15.6289 20.3892 15.6445C20.7486 15.6602 21.1119 15.668 21.4791 15.668C21.8541 15.668 22.2213 15.6562 22.5806 15.6328C22.94 15.6094 23.272 15.5664 23.5767 15.5039C23.5923 15.4883 23.6314 15.4805 23.6939 15.4805C23.8736 15.4805 24.022 15.5469 24.1392 15.6797C24.2564 15.8047 24.315 15.9453 24.315 16.1016V16.9453C24.6509 16.4766 25.0728 16.0898 25.5806 15.7852C26.0963 15.4727 26.7056 15.3164 27.4088 15.3164C27.94 15.332 28.4244 15.4258 28.8619 15.5977C29.2994 15.7617 29.6744 15.9922 29.9869 16.2891C30.3072 16.5781 30.5533 16.9297 30.7252 17.3438C30.9048 17.75 30.9947 18.207 30.9947 18.7148C30.9947 19.0352 30.9439 19.3438 30.8423 19.6406C30.7408 19.9375 30.5963 20.2031 30.4088 20.4375C30.2213 20.6641 29.9908 20.8477 29.7173 20.9883C29.4517 21.1211 29.1548 21.1875 28.8267 21.1875ZM44.2823 20.8125V20.6133C44.2823 20.0273 44.2198 19.4844 44.0948 18.9844C43.9698 18.4844 43.7706 18.043 43.4972 17.6602C43.2316 17.2695 42.8878 16.9492 42.4659 16.6992C42.0441 16.4492 41.5363 16.2812 40.9425 16.1953C40.5284 16.2422 40.1691 16.3555 39.8644 16.5352C39.5597 16.7148 39.298 16.9375 39.0792 17.2031C38.8683 17.4609 38.6925 17.7539 38.5519 18.082C38.4113 18.4102 38.298 18.75 38.212 19.1016C38.1339 19.4453 38.0753 19.793 38.0363 20.1445C37.9972 20.4883 37.9738 20.8125 37.9659 21.1172C38.0909 21.1562 38.2472 21.1992 38.4347 21.2461C38.63 21.293 38.8488 21.3398 39.0909 21.3867C39.3331 21.4258 39.5948 21.4609 39.8761 21.4922C40.1652 21.5156 40.4659 21.5273 40.7784 21.5273C41.4425 21.5273 42.0636 21.4648 42.6417 21.3398C43.2277 21.2148 43.7745 21.0391 44.2823 20.8125ZM45.4777 21.2695C45.4542 21.4727 45.3448 21.6484 45.1495 21.7969C44.9542 21.9453 44.7081 22.0781 44.4113 22.1953C44.1144 22.3047 43.7863 22.3984 43.4269 22.4766C43.0753 22.5469 42.7277 22.6055 42.3839 22.6523C42.0402 22.6992 41.7238 22.7344 41.4347 22.7578C41.1456 22.7734 40.9191 22.7812 40.755 22.7812C40.1847 22.7812 39.6573 22.7422 39.173 22.6641C38.6964 22.5859 38.3019 22.5039 37.9894 22.418C38.0363 22.9023 38.1261 23.3789 38.2589 23.8477C38.3917 24.3164 38.5831 24.7383 38.8331 25.1133C39.0831 25.4805 39.3956 25.7812 39.7706 26.0156C40.1456 26.2422 40.5988 26.3555 41.13 26.3555C41.3253 26.3555 41.548 26.332 41.798 26.2852C42.048 26.2305 42.2941 26.1562 42.5363 26.0625C42.7784 25.9609 43.0011 25.8438 43.2042 25.7109C43.4073 25.5703 43.5675 25.4141 43.6847 25.2422C43.8175 25.0859 43.9777 25.0078 44.1652 25.0078C44.3292 25.0078 44.4738 25.0742 44.5988 25.207C44.7238 25.332 44.7863 25.4727 44.7863 25.6289C44.7863 25.793 44.7355 25.9219 44.6339 26.0156C44.4464 26.3047 44.1847 26.5508 43.8488 26.7539C43.5128 26.957 43.1495 27.1211 42.7589 27.2461C42.3683 27.3789 41.9738 27.4727 41.5753 27.5273C41.1769 27.5898 40.8136 27.6211 40.4855 27.6211C39.548 27.6211 38.6769 27.4531 37.8722 27.1172C37.0675 26.7891 36.3683 26.3359 35.7745 25.7578C35.1808 25.1797 34.712 24.5 34.3683 23.7188C34.0323 22.9375 33.8644 22.0938 33.8644 21.1875C33.8644 20.1953 34.0128 19.3125 34.3097 18.5391C34.6066 17.7578 35.0284 17.1016 35.5753 16.5703C36.1222 16.0312 36.7863 15.625 37.5675 15.3516C38.3488 15.0703 39.2277 14.9297 40.2042 14.9297C41.1261 14.9688 41.9191 15.125 42.5831 15.3984C43.255 15.6719 43.8058 16.0508 44.2355 16.5352C44.6652 17.0195 44.9816 17.6055 45.1847 18.293C45.3956 18.9727 45.5011 19.7383 45.5011 20.5898C45.5011 20.7852 45.4972 20.9414 45.4894 21.0586C45.4816 21.168 45.4777 21.2383 45.4777 21.2695ZM62.8669 15.3867C62.8669 15.5273 62.8239 15.6523 62.738 15.7617C62.652 15.8711 62.5348 15.9453 62.3864 15.9844C62.1208 16.0469 61.8708 16.0977 61.6364 16.1367C61.402 16.168 61.1716 16.1953 60.945 16.2188C60.7575 17.0625 60.488 17.9648 60.1364 18.9258C59.7927 19.8789 59.3903 20.8516 58.9294 21.8438C58.4684 22.8281 57.9606 23.8047 57.4059 24.7734C56.8591 25.7422 56.2809 26.6602 55.6716 27.5273C55.6247 27.5977 55.5583 27.6602 55.4723 27.7148C55.3942 27.7695 55.3083 27.7969 55.2145 27.7969C55.1052 27.7969 55.0114 27.7773 54.9333 27.7383C54.863 27.707 54.7966 27.6602 54.7341 27.5977C54.2419 27.0898 53.7223 26.4766 53.1755 25.7578C52.6364 25.0391 52.1091 24.2109 51.5934 23.2734C51.0856 22.3281 50.6169 21.2617 50.1872 20.0742C49.7653 18.8867 49.4255 17.5703 49.1677 16.125C48.9958 16.1016 48.8239 16.082 48.652 16.0664C48.488 16.0508 48.3239 16.0234 48.1598 15.9844C48.0036 15.9609 47.8747 15.8945 47.7731 15.7852C47.6794 15.6758 47.6325 15.543 47.6325 15.3867C47.6325 15.1836 47.7028 15.0312 47.8434 14.9297C47.9841 14.8203 48.1208 14.7656 48.2536 14.7656C48.2692 14.7656 48.2809 14.7695 48.2887 14.7773C48.3044 14.7852 48.3239 14.7891 48.3473 14.7891C48.8552 14.8594 49.3473 14.918 49.8239 14.9648C50.3083 15.0039 50.7927 15.0234 51.277 15.0234C51.7614 15.0234 52.2341 15.0039 52.695 14.9648C53.1637 14.918 53.6286 14.8594 54.0895 14.7891C54.113 14.7891 54.1286 14.7852 54.1364 14.7773C54.152 14.7695 54.1677 14.7656 54.1833 14.7656C54.363 14.7656 54.5114 14.8281 54.6286 14.9531C54.7458 15.0703 54.8044 15.2148 54.8044 15.3867C54.8044 15.5273 54.7575 15.6562 54.6637 15.7734C54.57 15.8906 54.4489 15.9609 54.3005 15.9844C53.9645 16.0547 53.6208 16.1016 53.2692 16.125C53.3395 16.4766 53.4606 16.9453 53.6325 17.5312C53.8044 18.1172 54.0348 18.7773 54.3239 19.5117C54.4958 19.9492 54.6833 20.375 54.8864 20.7891C55.0973 21.2031 55.3044 21.5938 55.5075 21.9609C55.7184 22.3203 55.9177 22.6484 56.1052 22.9453C56.3005 23.2422 56.4684 23.4961 56.6091 23.707C56.9606 23.0742 57.2927 22.4336 57.6052 21.7852C57.9177 21.1289 58.2028 20.4844 58.4606 19.8516C58.7262 19.2109 58.9606 18.5859 59.1637 17.9766C59.3669 17.3672 59.5387 16.7812 59.6794 16.2188C59.4528 16.1953 59.2184 16.168 58.9762 16.1367C58.7341 16.0977 58.4802 16.0469 58.2145 15.9844C58.0661 15.9609 57.945 15.8906 57.8512 15.7734C57.7575 15.6562 57.7106 15.5273 57.7106 15.3867C57.7106 15.207 57.777 15.0586 57.9098 14.9414C58.0505 14.8242 58.1911 14.7656 58.3317 14.7656C58.3552 14.7656 58.3747 14.7695 58.3903 14.7773C58.4059 14.7852 58.4255 14.7891 58.4489 14.7891C58.8161 14.8594 59.1481 14.9141 59.445 14.9531C59.7419 14.9844 60.0348 15 60.3239 15C60.613 15 60.8981 14.9844 61.1794 14.9531C61.4684 14.9141 61.777 14.8594 62.1052 14.7891C62.1286 14.7891 62.152 14.7852 62.1755 14.7773C62.1989 14.7695 62.2223 14.7656 62.2458 14.7656C62.4177 14.7656 62.5622 14.832 62.6794 14.9648C62.8044 15.0898 62.8669 15.2305 62.8669 15.3867ZM71.6545 27.1641H71.5373C71.2248 27.1094 70.9397 27.0625 70.6819 27.0234C70.4241 26.9844 70.178 26.957 69.9436 26.9414C69.7092 26.918 69.4709 26.9023 69.2288 26.8945C68.9944 26.8867 68.7405 26.8828 68.467 26.8828C67.9123 26.8828 67.3733 26.9062 66.8498 26.9531C66.3264 26.9922 65.7522 27.0703 65.1272 27.1875H65.01C64.8147 27.1875 64.6663 27.125 64.5647 27C64.4631 26.8828 64.4123 26.7383 64.4123 26.5664C64.4123 26.4258 64.4553 26.3008 64.5413 26.1914C64.6272 26.082 64.7444 26.0078 64.8928 25.9688C65.1819 25.9219 65.4436 25.8867 65.678 25.8633C65.9123 25.832 66.1623 25.8047 66.428 25.7812V11.4727C65.9358 11.4336 65.5803 11.3984 65.3616 11.3672C65.1506 11.3281 65.0256 11.3086 64.9866 11.3086C64.8303 11.2852 64.7014 11.2148 64.5998 11.0977C64.5061 10.9805 64.4592 10.8477 64.4592 10.6992C64.4592 10.4961 64.5295 10.3438 64.6702 10.2422C64.8108 10.1328 64.9475 10.0781 65.0803 10.0781H65.1506C65.1584 10.0781 65.2288 10.0898 65.3616 10.1133C65.4944 10.1289 65.6741 10.1523 65.9006 10.1836C66.135 10.207 66.4084 10.2305 66.7209 10.2539C67.0413 10.2695 67.3889 10.2773 67.7639 10.2773C68.1389 10.2773 68.5061 10.2656 68.8655 10.2422C69.2248 10.2109 69.553 10.1641 69.8498 10.1016C69.8733 10.0859 69.9163 10.0781 69.9788 10.0781C70.1584 10.0781 70.3069 10.1445 70.4241 10.2773C70.5413 10.4023 70.5998 10.543 70.5998 10.6992L70.5764 25.7812C70.7092 25.7969 70.8186 25.8125 70.9045 25.8281C70.9983 25.8359 71.0842 25.8477 71.1623 25.8633C71.2483 25.8711 71.3342 25.8828 71.4202 25.8984C71.5139 25.9062 71.6311 25.9219 71.7717 25.9453C71.9202 25.9844 72.0413 26.0586 72.135 26.168C72.2288 26.2773 72.2756 26.4023 72.2756 26.543C72.2756 26.7227 72.2092 26.8711 72.0764 26.9883C71.9514 27.1055 71.8108 27.1641 71.6545 27.1641ZM83.0906 22.8984C83.075 22.7656 83.0633 22.6289 83.0555 22.4883C83.0477 22.3477 83.0437 22.2031 83.0437 22.0547H82.6102C82.2977 22.0547 81.9266 22.0781 81.4969 22.125C81.075 22.1719 80.6375 22.2461 80.1844 22.3477C79.7312 22.4492 79.282 22.5859 78.8367 22.7578C78.3914 22.9219 77.993 23.125 77.6414 23.3672C77.2898 23.6016 77.0047 23.8789 76.7859 24.1992C76.575 24.5195 76.4695 24.8867 76.4695 25.3008C76.4695 25.5195 76.5203 25.707 76.6219 25.8633C76.7312 26.0195 76.8641 26.1484 77.0203 26.25C77.1844 26.3438 77.3641 26.4141 77.5594 26.4609C77.7547 26.5 77.9422 26.5195 78.1219 26.5195C78.6766 26.5195 79.2 26.4141 79.6922 26.2031C80.1922 25.9844 80.6531 25.7031 81.075 25.3594C81.4969 25.0078 81.8758 24.6172 82.2117 24.1875C82.5477 23.7578 82.8406 23.3281 83.0906 22.8984ZM88.7039 26.9531H88.657C88.5242 26.9375 88.3875 26.9297 88.2469 26.9297C88.1062 26.9297 87.9695 26.9297 87.8367 26.9297C87.1023 26.9297 86.3953 26.9766 85.7156 27.0703C85.0437 27.1641 84.368 27.3086 83.6883 27.5039C83.6648 27.5039 83.6414 27.5078 83.618 27.5156C83.5945 27.5234 83.5633 27.5273 83.5242 27.5273C83.3445 27.5273 83.1961 27.457 83.0789 27.3164C82.9695 27.1836 82.9148 27.0469 82.9148 26.9062V26.8125C82.9148 26.7969 82.9344 26.6406 82.9734 26.3438C83.0125 26.0391 83.0516 25.6172 83.0906 25.0781C82.7547 25.4531 82.3953 25.8047 82.0125 26.1328C81.6375 26.4531 81.2391 26.7344 80.8172 26.9766C80.4031 27.2109 79.9734 27.3945 79.5281 27.5273C79.0828 27.668 78.6219 27.7383 78.1453 27.7383C77.7703 27.7383 77.407 27.6797 77.0555 27.5625C76.7039 27.4531 76.3914 27.293 76.118 27.082C75.8523 26.8711 75.6375 26.6172 75.4734 26.3203C75.3172 26.0156 75.2391 25.6758 75.2391 25.3008C75.2391 24.7148 75.3641 24.1992 75.6141 23.7539C75.8719 23.3086 76.2078 22.9219 76.6219 22.5938C77.0359 22.2578 77.5047 21.9805 78.0281 21.7617C78.5594 21.5352 79.0984 21.3555 79.6453 21.2227C80.1922 21.082 80.7234 20.9844 81.2391 20.9297C81.7547 20.8672 82.2117 20.8359 82.6102 20.8359H82.8914C82.8914 20.3594 82.8055 19.8945 82.6336 19.4414C82.4695 18.9883 82.2352 18.5859 81.9305 18.2344C81.6336 17.8828 81.2781 17.6016 80.8641 17.3906C80.45 17.1719 79.993 17.0625 79.493 17.0625C79.1258 17.0625 78.7664 17.168 78.4148 17.3789C78.0633 17.582 77.7508 17.8438 77.4773 18.1641C77.2039 18.4844 76.9812 18.8438 76.8094 19.2422C76.6453 19.6406 76.5633 20.0273 76.5633 20.4023C76.5633 20.5586 76.4969 20.6914 76.3641 20.8008C76.2391 20.9023 76.0984 20.9531 75.9422 20.9531C75.7703 20.9531 75.6219 20.8906 75.4969 20.7656C75.3719 20.6328 75.3094 20.4883 75.3094 20.332C75.3094 19.957 75.3758 19.5664 75.5086 19.1602C75.6414 18.7461 75.8328 18.3438 76.0828 17.9531C76.3406 17.5547 76.6492 17.1797 77.0086 16.8281C77.3758 16.4766 77.7898 16.168 78.2508 15.9023C78.7195 15.6289 79.2312 15.4141 79.7859 15.2578C80.3406 15.1016 80.9305 15.0234 81.5555 15.0234C82.4305 15.0234 83.1766 15.1602 83.7937 15.4336C84.4187 15.707 84.9383 16.0781 85.3523 16.5469C85.7742 17.0156 86.1062 17.5586 86.3484 18.1758C86.5906 18.793 86.7742 19.4453 86.8992 20.1328C87.0242 20.8203 87.1023 21.5195 87.1336 22.2305C87.1727 22.9414 87.1922 23.6211 87.1922 24.2695C87.1922 24.5977 87.1883 24.8789 87.1805 25.1133C87.1727 25.3477 87.1687 25.543 87.1687 25.6992C87.2859 25.6992 87.4031 25.6953 87.5203 25.6875C87.6453 25.6797 87.7664 25.6758 87.8836 25.6758C88.0164 25.6758 88.1531 25.6797 88.2937 25.6875C88.4422 25.6953 88.5867 25.6992 88.7273 25.6992C88.8992 25.7148 89.0359 25.7812 89.1375 25.8984C89.2469 26.0156 89.3016 26.1602 89.3016 26.332C89.3016 26.4961 89.243 26.6406 89.1258 26.7656C89.0164 26.8906 88.8758 26.9531 88.7039 26.9531ZM106.117 26.4727C106.101 26.6289 106.031 26.7617 105.906 26.8711C105.781 26.9727 105.64 27.0234 105.484 27.0234H105.437C105.062 26.9844 104.699 26.957 104.347 26.9414C104.003 26.918 103.663 26.9062 103.327 26.9062C102.835 26.9062 102.363 26.9297 101.91 26.9766C101.464 27.0156 101.027 27.0703 100.597 27.1406C100.581 27.1406 100.562 27.1445 100.538 27.1523C100.523 27.1602 100.507 27.1641 100.492 27.1641C100.327 27.1641 100.183 27.1016 100.058 26.9766C99.933 26.8438 99.8705 26.6992 99.8705 26.543C99.8705 26.4023 99.9173 26.2734 100.011 26.1562C100.113 26.0391 100.234 25.9688 100.374 25.9453C100.702 25.8828 101.031 25.8359 101.359 25.8047C101.695 25.7656 102.038 25.7305 102.39 25.6992C102.46 25.457 102.535 25.1289 102.613 24.7148C102.691 24.3008 102.761 23.8555 102.824 23.3789C102.894 22.9023 102.949 22.4219 102.988 21.9375C103.035 21.4531 103.058 21.0195 103.058 20.6367C103.058 20.2383 103.035 19.8047 102.988 19.3359C102.949 18.8672 102.851 18.4297 102.695 18.0234C102.546 17.6094 102.327 17.2656 102.038 16.9922C101.757 16.7188 101.378 16.582 100.902 16.582C100.363 16.582 99.8627 16.7148 99.4017 16.9805C98.9408 17.2461 98.5423 17.5859 98.2064 18C97.8783 18.4062 97.6166 18.8555 97.4212 19.3477C97.2337 19.8398 97.14 20.3125 97.14 20.7656V20.7891L97.1166 25.9453C97.2572 25.9609 97.3939 25.9766 97.5267 25.9922C97.6595 26 97.7923 26.0156 97.9252 26.0391C98.0814 26.0547 98.2103 26.1211 98.3119 26.2383C98.4212 26.3477 98.4759 26.4805 98.4759 26.6367C98.4759 26.8086 98.4095 26.957 98.2767 27.082C98.1517 27.207 98.0111 27.2695 97.8548 27.2695C97.8236 27.2695 97.8002 27.2578 97.7845 27.2344C97.3158 27.1875 96.8353 27.1406 96.3431 27.0938C95.8587 27.0469 95.347 27.0234 94.808 27.0234C94.3236 27.0234 93.8119 27.0469 93.2728 27.0938C92.7416 27.1484 92.1712 27.2305 91.5619 27.3398C91.5306 27.3555 91.4916 27.3633 91.4447 27.3633C91.265 27.3633 91.1205 27.2969 91.0111 27.1641C90.9017 27.0312 90.847 26.8867 90.847 26.7305C90.847 26.5898 90.89 26.4609 90.9759 26.3438C91.0619 26.2266 91.1791 26.1562 91.3275 26.1328C91.6166 26.0703 91.8939 26.0234 92.1595 25.9922C92.4252 25.9531 92.6908 25.9219 92.9564 25.8984V16.9453C92.4642 16.9219 92.0502 16.8945 91.7142 16.8633C91.3861 16.8242 91.2025 16.7969 91.1634 16.7812C91.0072 16.7656 90.8783 16.6992 90.7767 16.582C90.683 16.4648 90.6361 16.3281 90.6361 16.1719C90.6361 15.9844 90.7025 15.8359 90.8353 15.7266C90.9681 15.6094 91.1087 15.5508 91.2572 15.5508C91.2884 15.5508 91.3119 15.5586 91.3275 15.5742C91.3353 15.5742 91.4252 15.582 91.597 15.5977C91.7689 15.6133 91.9916 15.6328 92.265 15.6562C92.5462 15.6797 92.8627 15.6992 93.2142 15.7148C93.5658 15.7305 93.9291 15.7383 94.3041 15.7383C94.6791 15.7383 95.0462 15.7305 95.4056 15.7148C95.765 15.6914 96.0931 15.6445 96.39 15.5742C96.4056 15.5742 96.4212 15.5703 96.4369 15.5625C96.4603 15.5547 96.4837 15.5508 96.5072 15.5508C96.6869 15.5508 96.8353 15.6172 96.9525 15.75C97.0775 15.875 97.14 16.0156 97.14 16.1719V17.3789C97.5931 16.7148 98.1322 16.2148 98.7572 15.8789C99.39 15.5352 100.105 15.3633 100.902 15.3633C101.37 15.3633 101.777 15.4453 102.12 15.6094C102.472 15.7656 102.773 15.9805 103.023 16.2539C103.281 16.5273 103.488 16.8438 103.644 17.2031C103.808 17.5547 103.937 17.9258 104.031 18.3164C104.132 18.707 104.199 19.1055 104.23 19.5117C104.269 19.9102 104.288 20.2852 104.288 20.6367C104.288 21.0273 104.269 21.457 104.23 21.9258C104.191 22.3867 104.14 22.8477 104.077 23.3086C104.023 23.7695 103.956 24.207 103.878 24.6211C103.808 25.0352 103.738 25.3867 103.667 25.6758C103.964 25.6914 104.269 25.707 104.581 25.7227C104.902 25.7383 105.226 25.7656 105.554 25.8047C105.734 25.8203 105.87 25.8984 105.964 26.0391C106.066 26.1719 106.117 26.3164 106.117 26.4727ZM117.424 18.1641C117.307 17.8125 117.131 17.5078 116.896 17.25C116.662 16.9922 116.393 16.7773 116.088 16.6055C115.791 16.4336 115.471 16.3086 115.127 16.2305C114.783 16.1445 114.435 16.1016 114.084 16.1016C113.553 16.1016 113.08 16.1875 112.666 16.3594C112.252 16.5234 111.889 16.75 111.576 17.0391C111.264 17.3203 110.994 17.6523 110.768 18.0352C110.549 18.4102 110.369 18.8086 110.228 19.2305C110.088 19.6445 109.986 20.0703 109.924 20.5078C109.861 20.9453 109.83 21.3672 109.83 21.7734C109.838 22.3438 109.916 22.8945 110.064 23.4258C110.221 23.9492 110.447 24.418 110.744 24.832C111.049 25.2383 111.416 25.5664 111.846 25.8164C112.283 26.0586 112.787 26.1797 113.357 26.1797C113.881 26.1797 114.346 26.0586 114.752 25.8164C115.158 25.5664 115.514 25.2539 115.818 24.8789C116.131 24.5039 116.393 24.0938 116.603 23.6484C116.814 23.1953 116.982 22.7656 117.107 22.3594C117.232 21.9453 117.318 21.582 117.365 21.2695C117.42 20.9492 117.439 20.7383 117.424 20.6367V18.1641ZM123.014 26.9531H122.967C122.771 26.9375 122.576 26.9258 122.381 26.918C122.193 26.9102 122.01 26.9062 121.83 26.9062C121.33 26.9062 120.861 26.9297 120.424 26.9766C119.986 27.0234 119.603 27.0742 119.275 27.1289C118.955 27.1914 118.697 27.2461 118.502 27.293C118.314 27.3398 118.217 27.3633 118.209 27.3633C118.185 27.3789 118.158 27.3867 118.127 27.3867C118.096 27.3867 118.068 27.3867 118.045 27.3867C117.865 27.3867 117.717 27.3203 117.6 27.1875C117.482 27.0625 117.424 26.9219 117.424 26.7656V24.7734C117.244 25.1484 117.014 25.4961 116.732 25.8164C116.459 26.1367 116.15 26.4141 115.807 26.6484C115.463 26.8828 115.084 27.0664 114.67 27.1992C114.264 27.3398 113.838 27.4102 113.393 27.4102C112.643 27.4102 111.975 27.2578 111.389 26.9531C110.803 26.6484 110.303 26.2422 109.889 25.7344C109.482 25.2188 109.17 24.6211 108.951 23.9414C108.732 23.2617 108.619 22.5469 108.611 21.7969C108.611 21.2109 108.658 20.6367 108.752 20.0742C108.853 19.5039 109.006 18.9648 109.209 18.457C109.412 17.9414 109.662 17.4648 109.959 17.0273C110.264 16.5898 110.619 16.2148 111.025 15.9023C111.432 15.582 111.889 15.332 112.396 15.1523C112.904 14.9727 113.467 14.8828 114.084 14.8828C114.764 14.8828 115.385 14.9844 115.947 15.1875C116.51 15.3906 117.002 15.6719 117.424 16.0312V11.3086C116.939 11.2852 116.529 11.2539 116.193 11.2148C115.865 11.1758 115.682 11.1562 115.643 11.1562C115.486 11.1328 115.353 11.0625 115.244 10.9453C115.143 10.8281 115.092 10.6914 115.092 10.5352C115.092 10.3633 115.154 10.2227 115.279 10.1133C115.412 9.99609 115.557 9.9375 115.713 9.9375H115.783C115.791 9.9375 115.881 9.94922 116.053 9.97266C116.225 9.98828 116.447 10.0078 116.721 10.0312C117.002 10.0547 117.322 10.0781 117.682 10.1016C118.041 10.1172 118.408 10.125 118.783 10.125C119.15 10.125 119.51 10.1133 119.861 10.0898C120.221 10.0586 120.549 10.0078 120.846 9.9375H120.998C121.178 9.9375 121.322 10 121.432 10.125C121.541 10.2422 121.596 10.3789 121.596 10.5352V25.6758H121.83C122.033 25.6758 122.236 25.6797 122.439 25.6875C122.65 25.6875 122.857 25.6992 123.06 25.7227C123.232 25.7383 123.369 25.8047 123.471 25.9219C123.58 26.0391 123.635 26.1758 123.635 26.332C123.635 26.5195 123.564 26.6719 123.424 26.7891C123.291 26.8984 123.154 26.9531 123.014 26.9531Z" fill="white"/>
</svg>
